<?xml version="1.0" encoding="utf-8"?>
<!-- Generator: Adobe Illustrator 28.0.0, SVG Export Plug-In . SVG Version: 6.00 Build 0)  -->
<svg version="1.1" id="Layer_1" xmlns="http://www.w3.org/2000/svg" xmlns:xlink="http://www.w3.org/1999/xlink" x="0px" y="0px"
	 viewBox="0 0 1920 701.2" style="enable-background:new 0 0 1920 701.2;" xml:space="preserve">
<style type="text/css">
	.st0{fill:#006BFF;}
	.st1{fill:#1D2D3E;}
</style>
<g>
	<path class="st0" d="M147.7,191.2h-34.9v118.4h36.6c65.5,0,109,15.5,109,78.7v1.1c0,63.8-43.5,75.8-109,75.8h-36.6h-8H-4.7v121.3
		h150.2c142.3,0,233.3-84.7,233.3-198.8v-1.1C378.7,272.6,288.9,191.2,147.7,191.2"/>
	<path class="st1" d="M632.6,453.4v-16c-12.2-5.1-29.5-9-47.4-9c-35.2,0-55.7,17.3-55.7,42.9v1.3c0,23.7,17.9,37.8,42.9,37.8
		C607.7,510.4,632.6,487.9,632.6,453.4 M412.4,479.6v-1.3c0-71.7,54.4-108.9,135.7-108.9c32,0,63.4,6.4,83.2,13.4v-5.8
		c0-35.9-22.4-56.3-69.2-56.3c-36.5,0-64.7,7-95.4,19.2l-25-85.8c39.1-16,80.7-26.9,140.2-26.9c62.1,0,104.4,14.7,131.9,42.3
		c26.2,25.6,37.1,61.5,37.1,110.1v199.1H630.7V543c-23.7,26.2-56.3,43.5-101.8,43.5C463,586.5,412.4,548.8,412.4,479.6"/>
	<path class="st1" d="M820.6,337.5h-40.3V244h40.3v-9.6c0-39.7,9-69.1,29.4-89.6c21.1-21.1,49.3-30.1,90.3-30.1
		c37.1,0,60.2,3.8,79.4,9.6v85.8c-14.1-4.5-28.2-7-45.5-7c-22.4,0-34.6,10.2-34.6,32.7v8.3h79.4v93.5h-77.5v249.1h-121V337.5z"/>
	<path class="st1" d="M1244.3,482.8c16,0,31.4-4.5,46.1-11.5v95.4c-21.7,12.2-50.6,19.8-84.5,19.8c-73,0-116.5-32-116.5-114.6V337.5
		h-41l-0.3-93.5h41l0.2-73.6l121.7-25l-0.3,98.6l81,0v93.5l-80.7,0v110.8C1211,472.6,1221.9,482.8,1244.3,482.8z"/>
	<path class="st1" d="M1320.9,244h121.6v65.9c19.8-47.4,51.9-78.1,109.5-75.6v128.1h-10.2c-63.4,0-99.3,36.5-99.3,116.5v107.6
		h-121.6V244z"/>
	<path class="st1" d="M1801.6,453.4v-16c-12.2-5.1-29.5-9-47.4-9c-35.2,0-55.7,17.3-55.7,42.9v1.3c0,23.7,17.9,37.8,42.9,37.8
		C1776.6,510.4,1801.6,487.9,1801.6,453.4 M1581.3,479.6v-1.3c0-71.7,54.4-108.9,135.7-108.9c32,0,63.4,6.4,83.2,13.4v-5.8
		c0-35.9-22.4-56.3-69.2-56.3c-36.5,0-64.7,7-95.4,19.2l-25-85.8c39.1-16,80.7-26.9,140.2-26.9c62.1,0,104.4,14.7,131.9,42.3
		c26.2,25.6,37.1,61.5,37.1,110.1v199.1h-120.4V543c-23.7,26.2-56.3,43.5-101.8,43.5C1631.9,586.5,1581.3,548.8,1581.3,479.6"/>
</g>
</svg>
